<svg width="8" height="6" viewBox="0 0 8 6" fill="none" xmlns="http://www.w3.org/2000/svg">
<path fill-rule="evenodd" clip-rule="evenodd" d="M7.78691 5.27655C7.65218 5.40986 7.47003 5.48466 7.28018 5.48466C7.09032 5.48466 6.90817 5.40986 6.77344 5.27655L4.0183 2.26353L1.23523 5.27358C1.16993 5.34348 1.09116 5.39954 1.00363 5.43843C0.916101 5.47731 0.82161 5.49821 0.725791 5.49989C0.629971 5.50157 0.534791 5.48399 0.445941 5.4482C0.357091 5.41241 0.27638 5.35916 0.208648 5.2916C0.140917 5.22403 0.0875493 5.14355 0.0517218 5.05497C0.0158944 4.9664 -0.00165878 4.87155 0.00012329 4.77606C0.00190536 4.68057 0.0229946 4.5864 0.0621024 4.49921C0.10121 4.41202 0.15756 4.3336 0.227766 4.26859L3.49263 0.737657C3.50161 0.72871 3.5046 0.716752 3.51357 0.707805C3.6486 0.574678 3.83085 0.5 4.02079 0.5C4.21073 0.5 4.39299 0.574678 4.52801 0.707805L7.7849 4.26361C7.8528 4.32941 7.9068 4.40805 7.94374 4.49496C7.98069 4.58187 7.99981 4.6753 8 4.76969C8.00019 4.86407 7.98144 4.95755 7.94484 5.0446C7.90824 5.13165 7.85455 5.21049 7.78691 5.27655Z" fill="#292929"/>
</svg>
